<!--?xml version="1.0" standalone="no"?-->
              <svg id="sw-js-blob-svg" viewBox="0 0 100 100" xmlns="http://www.w3.org/2000/svg" version="1.1">
                    <defs> 
                        <linearGradient id="sw-gradient" x1="0" x2="1" y1="1" y2="0">
                            <stop id="stop1" stop-color="rgba(1.21, 1.21, 1.21, 1)" offset="0%"></stop>
                            <stop id="stop2" stop-color="rgba(17.147, 17.147, 17.147, 1)" offset="100%"></stop>
                        </linearGradient>
                    </defs>
                <path fill="url(#sw-gradient)" d="M17.6,-30.2C23.1,-27.3,28.1,-23.2,33.3,-18C38.6,-12.7,44.1,-6.4,43.7,-0.3C43.2,5.8,36.7,11.6,31.8,17.5C26.9,23.3,23.6,29.2,18.6,33.5C13.5,37.8,6.8,40.5,-0.5,41.4C-7.8,42.3,-15.6,41.4,-21.5,37.6C-27.4,33.8,-31.3,27.1,-34.2,20.3C-37,13.6,-38.8,6.8,-38.4,0.3C-37.9,-6.3,-35.3,-12.6,-32.3,-19.1C-29.4,-25.7,-26.1,-32.6,-20.6,-35.5C-15.2,-38.3,-7.6,-37.2,-0.8,-35.8C6.1,-34.5,12.1,-33,17.6,-30.2Z" width="100%" height="100%" transform="translate(50 50)" stroke-width="0" style="transition: all 0.3s ease 0s;" stroke="url(#sw-gradient)"></path>
              </svg>